<svg width="999" height="612" viewBox="0 0 999 612" fill="none" xmlns="http://www.w3.org/2000/svg">
<g clip-path="url(#clip0_37_53)">
<g clip-path="url(#clip1_37_53)">
<path fill-rule="evenodd" clip-rule="evenodd" d="M556.146 37.749C549.811 34.6158 541.366 38.2496 544.889 46.5325C548.662 55.4023 562.614 55.5118 570.494 55.336C569.705 55.2948 567.166 47.1611 566.296 45.932C563.732 42.3063 560.04 39.6787 556.146 37.749ZM629.134 196.774C630.733 198.137 629.264 196.902 629.134 196.774V196.774ZM550.043 77.867C546.336 80.6936 546.159 85.6842 549.187 89.0621C552.793 93.0836 559.378 92.9371 564.293 92.5453C566.516 92.3678 578.387 91.4196 575.573 89.482C575.79 89.5635 576.242 89.7614 576.725 90.0304C576.986 90.9792 577.259 91.9247 577.544 92.866C577.474 92.9067 577.415 92.9504 577.34 92.9909C577.421 92.9556 577.478 92.9174 577.549 92.8816C580.404 102.29 584.467 111.248 589.788 119.628C587.797 118.846 585.735 118.254 583.644 117.991C577.451 117.21 564.423 122.01 571.35 130.235C577.993 138.12 588.334 129.661 595.872 128.494C603.185 138.673 611.247 148.429 619.696 157.858C619.178 158.02 618.724 158.357 618.463 158.881C615.074 157.166 611.542 154.712 608.405 154.048C603.878 153.091 594.596 152.51 591.175 156.552C586.967 161.521 591.477 165.558 596.449 166.511C603.658 167.893 613.095 164.38 620.031 162.006C620.825 162.146 621.691 161.915 622.208 161.282C622.362 161.231 622.515 161.182 622.664 161.134C631.22 170.518 640.104 179.591 648.933 188.466C648.839 188.461 648.745 188.455 648.647 188.45C646.344 186.943 643.873 185.707 641.196 185.06C635.001 183.554 627.713 183.546 622.686 188.017C617.678 192.468 615.904 200.254 621.085 205.253C631.454 215.258 646.732 192.444 651.962 191.492C660.935 200.416 670.422 208.754 680.059 216.924C678.964 216.591 677.842 216.347 676.682 216.237C667.232 215.335 645.052 226.89 656.649 238.259C666.755 248.167 678.452 229.098 686.597 222.429C695.678 230.043 704.808 237.606 713.682 245.463C708.842 244.181 704.165 243.992 698.976 245.556C693.608 247.176 684.945 251.22 688.338 258.45C691.79 265.802 702.193 262.456 707.611 260.122C710.567 258.849 716.492 254.552 721.694 252.742C735.854 266.077 748.12 280.764 757.405 298.066C763.202 308.869 767.602 320.411 770.698 332.273C772.675 339.845 776.569 352.561 775.789 362.416C779.505 342.69 772.786 318.999 765.548 301.368C758.893 285.155 748.933 270.922 737.266 258.11C740.194 249.327 764.836 236.66 750.104 228.5C742.282 224.185 734.27 231.344 732.56 238.926C731.385 244.137 733.175 250.683 735.074 255.74C731.404 251.835 727.588 248.055 723.657 244.401C718.224 239.35 712.661 234.446 707.044 229.604C716.299 220.931 725.058 196.139 712.649 192.084C694.325 186.113 703.148 219.932 704.426 226.27C704.789 226.291 705.072 226.182 705.28 225.947C705.177 226.528 705.058 227.149 704.913 227.774C694.163 218.555 683.254 209.517 672.705 200.077C673.655 199.376 675.166 196.699 676.354 195.273C679.034 192.061 681.598 188.705 683.472 184.946C686.432 179.007 689.287 169.534 681.44 166.04C672.906 162.234 668.85 172.949 668.791 179.341C668.75 183.761 669.957 187.961 670.586 192.294C670.783 193.645 670.026 199.737 671.872 197.116C671.785 198.082 671.772 198.782 671.815 199.278C669.921 197.575 668.042 195.853 666.174 194.119C666.261 193.9 666.325 193.661 666.339 193.385C666.439 191.479 664.517 190.745 663.169 191.303C660.705 188.967 658.265 186.602 655.868 184.19C650.788 179.08 645.635 173.823 640.518 168.455C641.628 167.504 641.187 166.186 642.225 165.176C643.262 164.169 645.303 163.611 646.522 162.675C649.588 160.319 652.131 156.887 653.97 153.51C657.005 147.929 660.929 136.221 652.06 133.561C642.919 130.815 638.28 142.085 637.692 149.131C637.577 150.496 638.602 162.795 639.387 167.262C629.917 157.285 620.604 146.934 612.166 136.403C614.725 136.38 621.978 131.151 623.444 129.725C627.022 126.245 632.71 118.556 626.437 114.487C620.86 110.878 613.985 116.106 611.6 121.186C611.208 122.022 609.826 129.808 609.718 133.301C606.226 128.835 602.894 124.343 599.795 119.837C597.728 116.84 595.796 113.765 593.989 110.624C594.424 110.379 594.833 109.95 595.22 109.416C604.522 107.842 616.381 93.3654 605.455 88.3287C600.253 85.9337 594.612 90.8774 592.063 94.9249C591.541 95.753 590.696 99.9162 590.008 103.2C584.808 92.7955 580.835 81.7805 577.811 70.4867C578.621 70.2861 579.307 69.6691 579.397 68.6079C583.913 66.0399 587.479 63.9015 590.632 58.9632C592.591 55.896 596.118 48.8881 590.363 47.1857C582.874 44.9705 578.17 56.38 577.557 61.9997C577.486 62.652 577.488 64.5493 577.513 66.2879C577.253 66.2525 576.99 66.2565 576.732 66.302C575.012 59.3087 573.639 52.2255 572.547 45.1303C576.635 43.8181 577.342 22.4058 574.62 19.357C568.537 12.5302 564.245 22.3918 564.57 27.6038C564.954 33.7493 567.745 39.3397 571.07 44.301C571.427 44.8264 571.325 44.8009 571.417 44.069C571.468 44.4308 571.59 44.6978 571.77 44.8912C571.598 48.1261 571.264 51.438 571.424 54.3005C571.885 62.4981 572.842 70.7433 574.232 78.8353C574.57 80.8034 574.957 82.7554 575.391 84.6906C572.106 81.8987 567.676 79.4182 565.943 78.6425C561.444 76.6313 554.511 74.4597 550.043 77.867ZM776.317 362.444C776.108 365.302 775.591 367.92 774.625 370.078C775.349 367.621 775.905 365.067 776.317 362.444Z" fill="#F2F2F2"/>
<g opacity="0.7">
<path fill-rule="evenodd" clip-rule="evenodd" d="M679.372 231.366C696.965 230.455 718.724 240.699 720.601 259.774C721.964 273.634 721.542 287.454 723.652 301.293C725.34 312.354 728.908 322.971 733.775 333.046C738.455 342.735 748.163 350.982 750.688 361.331C752.298 367.926 751.397 377.203 749.177 383.654C746.478 391.497 747.913 390.877 753.291 397.458C763.829 410.355 773.318 423.58 780.028 438.983C789.694 461.169 796.031 487.102 792.444 511.387C791.987 514.472 791.446 525.539 787.189 526.312C782.434 527.177 784.657 520.847 784.911 518.803C786.529 505.757 787.966 494.354 786.015 481.104C778.484 429.983 741.717 396.302 717.776 352.914C716.46 350.677 713.682 345.349 711.75 341.834C708.7 336.285 705.634 325.725 701.505 321.61C693.729 313.858 700.878 329.443 702.393 332.418C704.309 336.181 706.417 340.181 708.38 343.478C717.362 358.764 727.388 375.449 736.664 391.206C696.543 400.324 668.287 352.213 657.521 320.583C648.65 294.523 638.036 233.596 679.372 231.366Z" fill="#69A1AC"/>
<path fill-rule="evenodd" clip-rule="evenodd" d="M915.181 182.972C885.769 185.3 866.888 204.658 858.098 231.733C853.361 246.324 852.818 261.313 850.186 276.308C846.226 298.868 837.705 315.964 821.053 332.036C815.895 337.014 812.094 342.125 809.392 347.593C804.029 353.052 799.36 359.23 795.93 366.783C791.548 376.429 790.308 388.002 795.367 397.618C796.727 400.204 800.121 405.393 803.638 407.751C790.471 435.722 783.231 466.355 784.047 496.949C784.54 515.417 785.444 533.893 786.499 552.339C786.783 557.292 788.4 565.47 790.828 557.164C793.051 549.567 790.264 537.64 790.006 529.702C788.751 491.037 787.678 455.88 803.635 419.755C805.309 415.969 807.083 412.213 808.931 408.487C809.039 408.424 809.14 408.349 809.242 408.275C809.312 408.329 809.376 408.388 809.447 408.441C809.565 408.231 809.726 407.981 809.915 407.702C810.445 407.156 810.908 406.467 811.348 405.697C812.763 403.741 814.365 401.443 814.373 400.184C814.373 400.174 814.368 400.159 814.368 400.15C824.247 384.065 835.561 368.867 847.119 353.966C847.032 354.075 859.655 336.932 857.703 346.412C856.762 350.981 847.477 359.681 843.727 364.52C835.432 375.286 825.691 388.927 817.597 402.118C816.507 402.742 814.968 405.808 813.855 408.091C813.241 409.248 812.668 410.414 812.104 411.43C840.786 420.883 863.098 401.843 878.312 379.698C878.33 379.672 878.346 379.645 878.364 379.619C882.994 373.499 887.736 367.423 893.661 362.586C903.546 354.515 914.133 353.091 925.787 349.119C957.571 338.287 971.085 297.2 975.377 266.714C980.219 232.32 956.533 179.581 915.181 182.972Z" fill="#89C5CC"/>
<path fill-rule="evenodd" clip-rule="evenodd" d="M857.083 86.6564C826.897 117.993 812.313 161.457 800.766 202.318C787.869 247.955 779.35 294.297 779.023 341.746C778.808 372.92 777.958 404.289 779.782 435.427C780.43 446.485 781.535 457.563 783.292 468.503C783.437 469.402 787.368 493.829 791.13 488.137C793.27 484.9 787.1 462.798 786.634 459.116C784.012 438.382 783.402 417.495 783.53 396.611C783.74 362.226 782.724 328.017 786.218 293.758C786.739 288.643 787.151 283.271 788.369 278.267C789.662 272.947 788.015 275.27 792.228 273.164C796.321 271.116 801.38 271.409 805.627 268.84C822.473 258.651 831.091 232.478 837.798 215.305C845.47 195.667 850.132 174.726 853.856 154.06C856.591 138.876 858.546 123.784 859.652 108.405C860.001 103.558 860.022 98.489 860.977 93.723C861.234 92.4374 862.525 90.1631 862.478 89.0246C862.379 86.615 860.921 85.1979 860.801 83.1732C859.538 84.3075 858.297 85.4694 857.083 86.6564Z" fill="#89C5CC"/>
<path fill-rule="evenodd" clip-rule="evenodd" d="M692.488 504.166C692.488 555.989 734.607 598 786.562 598C838.518 598 880.637 555.989 880.637 504.166" fill="#89C5CC"/>
<path fill-rule="evenodd" clip-rule="evenodd" d="M794.111 504.465H789.14C789.485 498.244 789.94 492.034 790.983 485.883C794.971 462.356 807.439 427.802 834.786 423.983C835.794 423.841 839.505 423.817 844.001 424.08C846.131 422.893 848.518 422.175 851.032 422.009C874.315 420.297 900.317 439.033 911.547 458.53C920.601 474.25 919.076 494.892 913.484 511.593C909.739 522.774 901.566 538.715 887.937 538.87C870.885 539.065 870.063 518.044 869.733 505.754C869.295 489.417 867.225 475.184 854.318 464.048C851.31 461.453 848.022 459.171 844.984 456.612C840.226 452.608 834.968 448.508 834.355 441.883C833.509 432.744 838.681 431.099 846.578 432.797C847.925 433.086 861.485 439.156 859.478 434.358C858.865 432.893 856.626 431.731 853.8 430.861C846.487 430.068 837.767 429.148 835.259 429.698C808.202 435.618 797.667 473.001 794.87 496.753C794.568 499.317 794.324 501.889 794.111 504.465Z" fill="#69A1AC"/>
</g>
</g>
<g opacity="0.8" clip-path="url(#clip2_37_53)">
<path d="M183.45 96.7875L158.4 72.6474C154.186 68.5875 147.352 68.5861 143.136 72.6444L143.133 72.6474L76.4435 136.905C72.3973 140.803 70.1243 146.09 70.1243 151.601V577.205" stroke="#CBCBCB" stroke-width="8"/>
<path d="M35.0474 575.905H106.55C108.786 575.905 110.598 577.65 110.598 579.803V581.102C110.598 583.255 108.786 585 106.55 585H35.0474C32.8121 585 31 583.255 31 581.102V579.803C31 577.65 32.8121 575.905 35.0474 575.905Z" fill="#AFB9C5"/>
<path fill-rule="evenodd" clip-rule="evenodd" d="M168.383 82.6242C150.997 99.368 150.997 126.515 168.383 143.259L195.094 168.983L258.056 108.348L231.345 82.6242C213.958 65.8803 185.77 65.8803 168.383 82.6242Z" fill="#C5CFD6"/>
<path d="M231.71 143.939C214.324 160.683 197.453 171.583 194.029 168.285C190.604 164.987 201.922 148.74 219.309 131.996C236.695 115.252 253.566 104.352 256.99 107.65C260.415 110.948 249.097 127.195 231.71 143.939Z" fill="#F2F2F2"/>
</g>
<path opacity="0.2" fill-rule="evenodd" clip-rule="evenodd" d="M287.905 254.353C290.156 253.238 293.157 254.531 291.905 257.478C290.564 260.634 285.607 260.673 282.807 260.61C283.087 260.596 283.989 257.702 284.298 257.264C285.209 255.974 286.521 255.039 287.905 254.353ZM261.988 311.857C261.193 312.536 261.923 311.921 261.988 311.857V311.857ZM290.521 269.005C291.867 270.023 291.931 271.82 290.83 273.038C289.52 274.487 287.128 274.435 285.343 274.295C284.536 274.232 280.224 273.892 281.246 273.194C281.168 273.223 281.003 273.295 280.828 273.392C280.733 273.733 280.634 274.074 280.53 274.413C280.555 274.428 280.577 274.444 280.604 274.458C280.575 274.445 280.554 274.432 280.528 274.419C279.49 277.808 278.012 281.036 276.078 284.055C276.801 283.773 277.55 283.56 278.31 283.464C280.559 283.182 285.29 284.909 282.773 287.872C280.359 290.714 276.604 287.669 273.866 287.25C271.209 290.918 268.278 294.433 265.208 297.831C265.396 297.889 265.561 298.011 265.655 298.2C266.887 297.581 268.17 296.697 269.31 296.457C270.954 296.111 274.325 295.9 275.567 297.355C277.095 299.145 275.456 300.599 273.65 300.944C271.031 301.443 267.604 300.179 265.085 299.325C264.797 299.376 264.483 299.293 264.295 299.065C264.239 299.047 264.183 299.029 264.129 299.012C261.02 302.393 257.792 305.663 254.583 308.862C254.617 308.86 254.651 308.858 254.687 308.856C255.524 308.313 256.421 307.867 257.394 307.633C259.644 307.09 262.291 307.086 264.116 308.695C265.934 310.298 266.577 313.102 264.695 314.903C260.927 318.509 255.382 310.294 253.482 309.952C250.222 313.168 246.774 316.173 243.273 319.118C243.67 318.998 244.078 318.91 244.499 318.87C247.932 318.543 255.986 322.702 251.771 326.799C248.099 330.369 243.854 323.503 240.897 321.102C237.597 323.847 234.28 326.572 231.055 329.404C232.813 328.941 234.512 328.872 236.396 329.435C238.346 330.018 241.492 331.472 240.258 334.077C239.003 336.726 235.225 335.523 233.257 334.683C232.184 334.225 230.033 332.678 228.144 332.027C222.998 336.833 218.54 342.126 215.165 348.36C213.057 352.252 211.457 356.41 210.33 360.684C209.611 363.412 208.194 367.993 208.475 371.542C207.129 364.438 209.574 355.903 212.206 349.551C214.627 343.71 218.247 338.581 222.487 333.964C221.425 330.801 212.477 326.242 217.829 323.301C220.671 321.745 223.58 324.322 224.2 327.053C224.625 328.93 223.974 331.288 223.283 333.11C224.617 331.703 226.004 330.34 227.432 329.023C229.406 327.203 231.428 325.436 233.469 323.69C230.109 320.568 226.932 311.639 231.44 310.177C238.097 308.023 234.886 320.206 234.42 322.489C234.288 322.497 234.186 322.457 234.11 322.373C234.148 322.582 234.191 322.806 234.243 323.031C238.149 319.708 242.113 316.451 245.947 313.048C245.602 312.796 245.053 311.832 244.622 311.319C243.65 310.162 242.719 308.954 242.039 307.6C240.965 305.461 239.929 302.05 242.78 300.79C245.881 299.417 247.352 303.276 247.372 305.578C247.386 307.171 246.947 308.684 246.718 310.244C246.646 310.731 246.92 312.925 246.25 311.982C246.281 312.33 246.286 312.582 246.27 312.761C246.958 312.147 247.641 311.526 248.32 310.901C248.288 310.822 248.265 310.736 248.26 310.637C248.224 309.95 248.922 309.685 249.412 309.886C250.307 309.044 251.194 308.192 252.065 307.323C253.911 305.481 255.784 303.587 257.643 301.652C257.24 301.31 257.401 300.835 257.024 300.471C256.647 300.109 255.906 299.908 255.463 299.571C254.35 298.723 253.427 297.488 252.76 296.271C251.659 294.261 250.236 290.045 253.457 289.085C256.778 288.094 258.461 292.153 258.673 294.691C258.715 295.183 258.34 299.613 258.054 301.222C261.495 297.627 264.88 293.897 267.947 290.102C267.018 290.094 264.384 288.212 263.852 287.698C262.553 286.445 260.488 283.677 262.767 282.21C264.794 280.909 267.29 282.791 268.155 284.62C268.297 284.921 268.798 287.726 268.837 288.984C270.106 287.375 271.317 285.756 272.443 284.132C273.195 283.053 273.897 281.944 274.554 280.813C274.396 280.724 274.247 280.57 274.107 280.378C270.729 279.812 266.424 274.6 270.393 272.784C272.283 271.92 274.331 273.7 275.256 275.157C275.445 275.456 275.752 276.955 276.001 278.138C277.891 274.389 279.337 270.421 280.437 266.352C280.143 266.28 279.894 266.058 279.861 265.676C278.222 264.751 276.927 263.982 275.782 262.204C275.072 261.099 273.792 258.576 275.882 257.961C278.603 257.162 280.309 261.271 280.531 263.295C280.557 263.53 280.555 264.213 280.546 264.84C280.641 264.827 280.736 264.828 280.83 264.845C281.456 262.325 281.956 259.774 282.354 257.218C280.869 256.746 280.616 249.033 281.605 247.934C283.816 245.474 285.373 249.026 285.254 250.903C285.114 253.117 284.099 255.131 282.89 256.919C282.761 257.108 282.798 257.099 282.764 256.835C282.746 256.965 282.701 257.062 282.636 257.131C282.698 258.297 282.819 259.489 282.76 260.521C282.591 263.473 282.242 266.444 281.735 269.359C281.612 270.068 281.471 270.771 281.313 271.468C282.507 270.462 284.116 269.567 284.746 269.288C286.38 268.562 288.899 267.779 290.521 269.005ZM208.208 371.262C208.287 372.211 208.521 373.077 208.983 373.786C208.644 372.975 208.39 372.131 208.208 371.262Z" fill="#C1DEE2"/>
<g opacity="0.5">
<path fill-rule="evenodd" clip-rule="evenodd" d="M267.396 351.038C270.09 347.202 275.089 337.458 278.88 336.087C281.323 335.204 280.611 344.338 280.641 346.08C280.758 352.818 280.101 359.514 279.29 366.196C277.829 378.246 273.051 388.978 266.497 399.235C263.125 404.512 259.17 409.854 253.691 413.147C251.169 414.663 248.135 414.917 245.645 416.224C242.744 417.745 244.324 416.515 243.017 419.534C241.202 423.725 240.621 429.132 239.781 433.605C235.925 454.134 226.589 562.66 228.207 583.543C228.351 585.394 225.767 585.837 225.638 583.577C224.953 571.596 230.885 488.626 233.879 461.493C236.872 434.36 239.901 410.389 242.938 401.001C246.622 389.612 253.277 375.917 258.816 365.296C261.389 360.362 264.194 355.598 267.396 351.038Z" fill="#69A1AC"/>
<path fill-rule="evenodd" clip-rule="evenodd" d="M287.391 484.116C294.401 478.975 301.989 488.677 295.645 493.818C292.139 496.66 288.473 495.649 286.409 493.281C285.069 494.912 283.815 496.618 282.61 498.058C278.939 502.448 275.469 506.943 272.153 511.543C265.264 521.098 259.36 531.193 253.188 541.104C247.096 550.885 241.053 560.716 235.532 570.745C230.855 579.242 224.621 589.238 223.019 598.553C225.449 578.797 234.668 559.808 245.647 542.392C256.537 525.119 269.034 506.254 285.895 492.623C284.179 490.102 284.132 486.504 287.391 484.116Z" fill="#C1DEE2"/>
<path fill-rule="evenodd" clip-rule="evenodd" d="M154.37 435.934C158.293 436.701 164.702 445.564 167.936 448.941C171.779 452.955 175.265 457.232 178.552 461.714C185.627 471.361 191.954 481.617 197.334 492.313C206.106 509.749 213.133 527.648 218.232 546.635C221.354 558.258 223.375 570.305 224.573 582.267C224.8 584.523 227.168 601.917 223.755 602.385C220.686 602.808 221.634 589.178 221.486 587.324C219.813 566.408 214.799 546.057 207.825 526.343C206.306 522.049 204.895 516.788 202.466 512.924C200.716 510.14 202.453 511.111 199.379 510.057C196.739 509.152 193.731 509.373 191.028 508.265C185.155 505.86 180.453 501.19 176.331 496.493C168.321 487.364 161.973 477.489 158.665 465.792C156.829 459.306 155.142 452.783 154.206 446.097C153.964 444.369 151.843 435.441 154.37 435.934Z" fill="#69A1AC"/>
<path fill-rule="evenodd" clip-rule="evenodd" d="M169.85 288.462C184.627 314.058 196.769 342.174 204.61 370.652C209.361 387.906 212.683 405.612 215.984 423.19C221.094 450.406 225.928 477.621 227.303 505.321C228.687 533.182 231.423 565.316 222.289 592.15C226.851 564.906 222.508 535.907 221.739 508.494C221.371 495.407 220.306 482.448 218.909 469.438C217.553 456.818 215.338 444.257 213.276 431.736C212.271 425.638 211.216 419.549 210.141 413.463C209.821 411.648 209.685 406.26 208.532 405.02C207.372 403.771 201.45 403.262 199.591 402.346C195.848 400.501 192.326 397.88 189.21 395.111C183.236 389.802 178.039 382.866 173.937 376.028C164.446 360.207 160.651 340.899 160.843 322.576C160.88 319.019 166.608 280.71 164.307 280.183C164.446 280.021 164.577 279.854 164.7 279.68C166.442 282.592 168.151 285.525 169.85 288.462Z" fill="#89C5CC"/>
<path fill-rule="evenodd" clip-rule="evenodd" d="M329.337 380.776C329.565 380.448 331.049 378.163 330.302 378.309C331.823 378.012 328.209 380.829 332 379.1C330.2 380.798 331.239 383.004 331.263 385.289C331.302 388.999 330.681 392.679 329.981 396.309C328.876 402.048 327.229 407.628 324.838 412.966C319.628 424.598 310.782 435.796 300.279 443.068C295.094 446.659 290.013 447.881 284.099 449.534C280.364 450.578 280.068 452.508 278.086 456.129C273.958 463.669 269.904 471.182 266.264 478.976C261.917 488.284 257.697 497.602 253.717 507.073C240.308 538.977 229.395 572.03 223.663 606.237C223.523 586.079 228.192 565.318 234.081 546.104C238.371 532.106 243.955 518.611 249.912 505.253C251.355 502.017 253.542 497.855 254.155 494.282C254.585 491.779 253.272 489.371 252.672 486.734C250.329 476.465 250.497 464.961 252.554 454.637C254.822 443.253 261.38 437.969 272.474 436.357C276.531 435.767 281.688 435.983 285.409 434.255C289.462 432.374 291.134 426.189 293.439 422.218C299.63 411.553 306.986 401.325 315.432 392.338C317.77 389.85 320.285 387.554 322.954 385.427C324.636 384.084 328.19 382.43 329.337 380.776Z" fill="#89C5CC"/>
<path fill-rule="evenodd" clip-rule="evenodd" d="M204.936 584.466H244.308C246.078 584.466 247.513 585.9 247.513 587.668C247.513 587.824 247.502 587.98 247.479 588.135L244.436 608.745C243.508 615.029 238.11 619.683 231.752 619.683H217.492C211.133 619.683 205.736 615.029 204.808 608.745L201.765 588.135C201.506 586.386 202.717 584.759 204.468 584.501C204.623 584.478 204.779 584.466 204.936 584.466Z" fill="#C1DEE2"/>
</g>
<path fill-rule="evenodd" clip-rule="evenodd" d="M345.462 170.004C341.914 162.527 340.372 154.143 343.101 145.987C350.965 122.485 382.668 136.936 385.972 150.817C389.276 164.698 380.577 195.166 371.705 195.02C368.167 194.962 361.651 190.89 355.593 184.523L351.777 217.977L325.138 210.582L345.462 170.004Z" fill="#D4A181"/>
<path fill-rule="evenodd" clip-rule="evenodd" d="M355.309 170.864C350.365 176.342 344.574 179.895 340.036 178.641C331.417 176.259 328.322 162.894 331.582 150.345C331.697 149.905 331.819 149.469 331.949 149.039C321.185 152.857 310.913 163.406 298.849 160.072C282.436 155.537 284.63 120.206 307.561 126.542C323.156 130.851 330.229 135.274 335.955 140.506C338.226 137.144 341.027 134.563 344.026 133.049C344.785 132.543 345.847 132.153 347.158 131.881C347.967 131.685 348.781 131.568 349.596 131.536C353.968 131.153 360.015 131.702 366.525 133.257C367.741 133.547 368.927 133.861 370.077 134.196C371.695 128.045 377.924 124.423 384.007 126.104C390.101 127.788 393.741 134.157 392.137 140.33C390.586 146.299 384.699 149.899 378.801 148.606C375.203 148.727 370.73 148.309 365.905 147.321C365.91 149.201 365.643 151.262 365.058 153.513C364.541 155.5 363.777 157.548 362.822 159.578C362.116 158.056 360.951 156.868 359.555 156.482C355.652 155.404 352.089 157.906 351.192 161.359C350.053 165.742 351.728 169.603 355.309 170.864Z" fill="#191847"/>
<path fill-rule="evenodd" clip-rule="evenodd" d="M291.442 313.73L333.184 460.594L352.818 570.861H372.524L352.853 313.73H291.442Z" fill="#BA8B72"/>
<path fill-rule="evenodd" clip-rule="evenodd" d="M272.683 313.73C275.596 390.025 274.447 431.638 273.795 438.57C273.143 445.502 269.442 491.926 244.224 573.188H264.72C298.118 495.231 309.776 448.807 313.607 438.57C317.437 428.333 328.75 386.72 345.266 313.73H272.683Z" fill="#D4A181"/>
<path fill-rule="evenodd" clip-rule="evenodd" d="M290.546 313.73C301.404 364.266 320.183 444.935 346.884 555.736H375.706C377.835 442.009 368.779 367.158 353.096 313.73H290.546Z" fill="#69A1AC"/>
<path fill-rule="evenodd" clip-rule="evenodd" d="M272.537 313.73C275.39 390.025 267.997 465.19 245.098 556.923H275.85C309.309 480.13 333.29 405.336 349.679 313.73H272.537Z" fill="#89C5CC"/>
<path fill-rule="evenodd" clip-rule="evenodd" d="M241.303 588.313L242.434 569.697C249.055 571.675 257.348 570.899 267.314 567.37C278.029 575.12 291.518 580.412 307.78 583.245C309.021 583.461 309.855 584.664 309.643 585.931C309.63 586.013 309.612 586.094 309.589 586.174L308.026 591.804H267.314H243.565L241.303 588.313Z" fill="#191847"/>
<path fill-rule="evenodd" clip-rule="evenodd" d="M348.419 588.313L349.55 569.697C356.171 571.675 364.465 570.899 374.43 567.37C385.145 575.12 398.634 580.412 414.896 583.245C416.137 583.461 416.971 584.664 416.76 585.931C416.746 586.013 416.728 586.094 416.706 586.174L415.142 591.804H374.43H350.681L348.419 588.313Z" fill="#191847"/>
<path fill-rule="evenodd" clip-rule="evenodd" d="M372.87 248.159L415.6 233.587C423.424 226.949 430.854 222.041 437.892 218.863C439.956 218.399 443.406 218.519 439.292 223.615C435.177 228.711 431.076 234.261 432.382 236.301C433.689 238.34 438.104 236.63 439.523 239.881C440.469 242.049 433.115 243.859 417.462 245.311L384.609 266.489L372.87 248.159ZM430.884 277.618L449.659 271.188C453.647 262.338 457.32 258.189 460.675 258.741C463.452 257.996 456.976 268.918 462.022 268.789C467.068 268.66 480.49 261.854 482.228 264.051C484.8 267.3 480.687 275.085 476.8 278.622C469.536 285.233 464.159 286.966 451.39 288.19C444.714 288.83 437.213 291.185 428.886 295.257L430.884 277.618Z" fill="#D4A181"/>
<path fill-rule="evenodd" clip-rule="evenodd" d="M354.765 240.031C368.465 242.373 387.2 242.769 408.793 233.81L413.488 252.446C397.763 263.483 377 271.124 360.579 267.652C347.638 264.916 343.712 247.79 354.765 240.031Z" fill="#256572"/>
<path fill-rule="evenodd" clip-rule="evenodd" d="M368.385 271.245C382.283 277.572 407.377 277.682 443.667 271.573C449.114 290.928 450.871 304.339 448.94 311.805C416.963 322.002 390.646 324.348 369.859 321.026C368.392 333.618 364.875 345.214 358.003 355.141C343.876 375.55 286.91 343.864 265.881 344.216C260.298 299.91 287.828 287.343 292.424 260.485C297.457 231.072 328.441 190.039 331.864 190.664L363.087 196.363C360.983 219.143 365.436 245.486 368.385 271.245Z" fill="#558D98"/>
<path fill-rule="evenodd" clip-rule="evenodd" d="M508.17 247.531C503.417 241.322 500.199 233.713 500.737 225.187C502.286 200.621 533.017 206.026 538.995 218.424C544.973 230.823 544.262 262.274 536.536 264.49C533.455 265.374 526.892 263.209 520.212 258.728L524.405 291.737H499.647L508.17 247.531Z" fill="#B28B67"/>
<path fill-rule="evenodd" clip-rule="evenodd" d="M529.215 204.92C525.832 203.772 520.922 203.383 518.856 203.647C520.031 200.513 520.497 197.023 520.117 193.624C519.747 190.321 518.421 187.509 517.195 184.563C516.629 183.204 515.989 181.853 515.034 180.815C514.06 179.756 512.829 179.058 511.537 178.724C510.215 178.383 508.833 178.411 507.509 178.721C506.924 178.858 506.398 179.156 505.824 179.322C505.236 179.491 504.95 179.082 504.523 178.67C503.494 177.678 501.986 177.188 500.685 177.013C499.224 176.817 497.709 177.062 496.316 177.596C494.961 178.116 493.658 178.96 492.678 180.191C492.242 180.738 491.846 181.362 491.588 182.05C491.483 182.332 491.465 182.499 491.212 182.603C490.978 182.699 490.704 182.701 490.462 182.793C488.125 183.674 486.126 185.683 485.038 188.264C484.403 189.769 484.102 192.419 484.185 195.39C484.267 198.361 486.678 206.112 488.932 208.939C490.945 211.463 493.903 213.128 496.757 213.857C494.863 216.267 493.601 219.279 492.669 222.342C491.655 225.669 491.028 229.126 490.797 232.648C490.577 235.995 490.557 239.534 491.262 242.809C491.921 245.872 493.332 248.385 495.686 249.979C496.765 250.709 497.925 251.258 499.093 251.759C500.243 252.253 501.397 252.733 502.602 253.011C504.882 253.535 507.51 253.445 509.266 251.425C509.899 250.697 510.596 249.782 511.058 248.892C511.224 248.573 511.324 248.363 511.122 248.051C510.88 247.676 510.489 247.389 510.179 247.096C508.408 245.426 507.312 243.196 507.036 240.546C506.755 237.857 507.404 234.387 509.754 233.213C512.653 231.765 515.847 233.427 518.424 234.977C519.52 230.675 521.769 226.801 525.295 224.828C529.197 222.645 533.673 222.389 537.682 220.516C538.727 220.028 539.791 219.474 540.56 218.479C540.882 218.064 541.259 217.524 541.387 216.975C541.556 216.253 541.137 215.647 540.814 215.084C539.1 212.099 532.598 206.068 529.215 204.92Z" fill="#191847"/>
<path fill-rule="evenodd" clip-rule="evenodd" d="M622.285 407.787C629.691 396.609 648.205 404.009 648.194 413.262C648.165 437.558 628.24 552.902 627.2 560.184C626.159 567.467 615.015 569.849 614.366 560.75C613.334 546.272 611.415 496.081 613.335 472.731C613.895 465.911 614.486 459.318 615.082 453.142C604.61 474.076 588.687 503.664 567.311 541.907L555.431 535.867C564.76 501.664 572.41 477.517 578.38 463.427C588.603 439.302 598.189 418.641 602.223 411.364C607.552 401.751 616.195 403.027 622.285 407.787Z" fill="#B28B67"/>
<path fill-rule="evenodd" clip-rule="evenodd" d="M556.28 516.873L597.056 409.384C606.824 391.899 634.212 412.942 630.881 423.084C623.318 446.108 584.855 520.648 582.602 527.508L556.28 516.873Z" fill="#1F28CF"/>
<path fill-rule="evenodd" clip-rule="evenodd" d="M649.226 421.655C649.226 452.122 637.225 523.738 637.216 530.447L608.144 529.356C613.226 467.09 615.369 435.746 614.574 435.324C612.783 434.375 541.18 446.352 519.706 447.256C488.739 448.56 475.928 427.42 474.889 387.302H534.873C586.164 394.115 619.875 398.854 636.006 401.518C646.364 403.229 649.226 413.262 649.226 421.655Z" fill="#2B44FF"/>
<path fill-rule="evenodd" clip-rule="evenodd" d="M553.532 532.259C551.721 535.127 550.646 537.355 550.306 538.942C549.894 540.872 549.595 543.776 549.409 547.655C551.519 548.269 570.476 553.781 606.282 564.193C608.868 559.437 608.613 556.389 605.518 555.05C602.422 553.71 599.856 552.568 597.822 551.622L574.061 531.427C573.604 531.038 572.956 531.108 572.614 531.581C572.608 531.59 572.602 531.598 572.597 531.606L569.963 535.487C566.703 536.09 564.151 536.123 562.309 535.587C560.811 535.152 558.881 533.908 556.517 531.857C555.609 531.07 554.312 531.194 553.618 532.134C553.588 532.174 553.559 532.216 553.532 532.259Z" fill="#E4E4E4"/>
<path fill-rule="evenodd" clip-rule="evenodd" d="M612.788 543.592C611.634 547.021 611.057 549.586 611.057 551.288C611.057 553.358 611.367 556.379 611.987 560.35C614.145 560.35 633.539 560.35 670.17 560.35C671.682 554.788 670.809 551.785 667.552 551.341C664.294 550.898 661.588 550.497 659.433 550.14L632.39 536.724C631.87 536.466 631.26 536.726 631.028 537.305C631.024 537.315 631.02 537.325 631.017 537.335L629.278 542.028C626.263 543.593 623.812 544.376 621.927 544.376C620.395 544.376 618.279 543.688 615.58 542.311C614.544 541.782 613.32 542.289 612.845 543.441C612.825 543.491 612.806 543.541 612.788 543.592Z" fill="#E4E4E4"/>
<path d="M663.152 560.35H615.699C613.705 560.35 612.089 562.149 612.089 564.368C612.089 566.586 613.705 568.385 615.699 568.385H663.152C665.146 568.385 666.763 566.586 666.763 564.368C666.763 562.149 665.146 560.35 663.152 560.35Z" fill="#2F3676"/>
<path fill-rule="evenodd" clip-rule="evenodd" d="M471.794 393.902H582.173C587.87 393.902 592.489 399.041 592.489 405.381V461.629H465.605C463.326 461.629 461.478 459.573 461.478 457.037V405.381C461.478 399.041 466.097 393.902 471.794 393.902Z" fill="#2F3676"/>
<path fill-rule="evenodd" clip-rule="evenodd" d="M582.173 393.902H584.436C589.488 393.902 593.797 397.974 594.616 403.521L617.247 556.906H606.224" fill="#2F3676"/>
<path d="M612.089 579.864C622.344 579.864 630.657 570.614 630.657 559.202C630.657 547.79 622.344 538.539 612.089 538.539C601.834 538.539 593.521 547.79 593.521 559.202C593.521 570.614 601.834 579.864 612.089 579.864Z" fill="#191847"/>
<path fill-rule="evenodd" clip-rule="evenodd" d="M474.889 577.569C431.59 577.569 396.489 538.509 396.489 490.327C396.489 442.145 431.59 403.085 474.889 403.085C518.188 403.085 553.289 442.145 553.289 490.327C553.289 538.509 518.188 577.569 474.889 577.569ZM474.889 561.498C510.212 561.498 538.847 529.633 538.847 490.327C538.847 451.02 510.212 419.156 474.889 419.156C439.566 419.156 410.931 451.02 410.931 490.327C410.931 529.633 439.566 561.498 474.889 561.498Z" fill="#191847"/>
<path d="M479.015 414.564H470.763V566.089H479.015V414.564Z" fill="#191847"/>
<path d="M524.491 438.378L521.573 435.131C520.767 434.235 519.461 434.235 518.655 435.131L425.287 539.029C424.481 539.925 424.481 541.379 425.287 542.276L428.205 545.523C429.011 546.419 430.317 546.419 431.123 545.523L524.491 441.625C525.296 440.728 525.296 439.275 524.491 438.378Z" fill="#191847"/>
<path d="M542.973 492.623V488.031C542.973 486.763 542.049 485.735 540.91 485.735H408.868C407.728 485.735 406.805 486.763 406.805 488.031V492.623C406.805 493.891 407.728 494.919 408.868 494.919H540.91C542.049 494.919 542.973 493.891 542.973 492.623Z" fill="#191847"/>
<path d="M521.573 545.523L524.491 542.276C525.296 541.379 525.296 539.925 524.491 539.029L431.123 435.131C430.317 434.235 429.011 434.235 428.205 435.131L425.287 438.378C424.482 439.275 424.482 440.728 425.287 441.625L518.655 545.523C519.461 546.419 520.767 546.419 521.573 545.523Z" fill="#191847"/>
<path fill-rule="evenodd" clip-rule="evenodd" d="M579.549 269.17L618.65 256.109C625.944 249.79 632.824 245.17 639.29 242.249C641.171 241.855 644.284 242.084 640.394 246.995C636.503 251.906 632.609 257.266 633.72 259.326C634.831 261.385 638.878 259.833 640.05 263.095C640.831 265.269 634.125 266.827 619.934 267.767L589.532 287.677L579.549 269.17ZM576.094 345.882L609 372.771C617.924 375.451 625.38 378.785 631.368 382.773C632.783 384.207 634.492 387.112 628.626 386.61C622.76 386.108 616.57 385.873 615.76 388.1C614.951 390.326 618.501 392.989 616.865 395.993C615.774 397.996 610.621 392.974 601.405 380.928L568.82 365.892L576.094 345.882Z" fill="#B28B67"/>
<path fill-rule="evenodd" clip-rule="evenodd" d="M524.983 273.47C542.902 310.651 568.814 339.152 606.38 368.781L592.156 386.627C550.213 369.282 528.076 358.817 517.205 323.689C514.477 314.873 512.57 286.768 510.934 271.98L524.983 273.47Z" fill="#191847"/>
<path fill-rule="evenodd" clip-rule="evenodd" d="M474.889 397.346H554.32C536.328 336.283 527.137 294.373 526.747 271.616C526.727 270.456 524.801 268.412 523.949 268.679C517.72 270.637 511.053 269.905 503.95 266.483C485.12 300.184 478.608 341.677 474.889 397.346Z" fill="#F2F2F2"/>
<path fill-rule="evenodd" clip-rule="evenodd" d="M510.729 266.538C533.497 266.745 570.438 271.372 613.041 256.152L617.247 279.539C585.048 302.583 552.444 320.434 523.875 317.899C536.281 377.116 535.709 425.591 508.32 425.591C495.24 425.591 481.123 425.591 465.967 425.591C459.24 375.287 476.919 305.539 493.309 270.359C493.935 269.016 495.267 266.483 498.406 266.483C501.141 266.483 505.243 266.483 510.712 266.483C510.718 266.501 510.723 266.519 510.729 266.538Z" fill="#111566"/>
</g>
<defs>
<clipPath id="clip0_37_53">
<rect width="999" height="612" fill="white"/>
</clipPath>
<clipPath id="clip1_37_53">
<rect width="433" height="581" fill="white" transform="translate(543 17)"/>
</clipPath>
<clipPath id="clip2_37_53">
<rect width="228" height="521" fill="white" transform="matrix(-1 0 0 1 259 64)"/>
</clipPath>
</defs>
</svg>
